<svg width="30" height="30" viewBox="0 0 16 16" fill="none" xmlns="http://www.w3.org/2000/svg">
<path d="M12.75 15.5C14.2688 15.5 15.5 14.2688 15.5 12.75L15.5 8.75C15.5 8.47386 15.2761 8.25 15 8.25L9.25 8.25C8.97386 8.25 8.75 8.47386 8.75 8.75L8.75 15C8.75 15.2761 8.97386 15.5 9.25 15.5L12.75 15.5Z" fill="#fff"/>
<path d="M7.25 15C7.25 15.2761 7.02614 15.5 6.75 15.5L3.12 15.5C1.67301 15.5 0.5 14.327 0.5 12.88V8.75C0.5 8.47386 0.723858 8.25 1 8.25L6.75 8.25C7.02614 8.25 7.25 8.47386 7.25 8.75L7.25 15Z" fill="#fff"/>
<path d="M0.5 6.25C0.5 6.52614 0.723858 6.75 1 6.75L15 6.75C15.2761 6.75 15.5 6.52614 15.5 6.25L15.5 3.25C15.5 1.73122 14.2688 0.5 12.75 0.5H3.12C1.67302 0.5 0.5 1.67301 0.5 3.12V6.25Z" fill="#fff"/>
</svg>
