<svg width="30" height="30" viewBox="0 0 16 16" fill="none" xmlns="http://www.w3.org/2000/svg">
<path d="M6.75 1C6.75 0.723858 6.52614 0.5 6.25 0.5H3.25C1.73122 0.5 0.5 1.73122 0.5 3.25V12.88C0.5 14.327 1.67301 15.5 3.12 15.5H6.25C6.52614 15.5 6.75 15.2761 6.75 15L6.75 1Z" fill="#fff"/>
<path d="M8.25 15C8.25 15.2761 8.47386 15.5 8.75 15.5H12.88C14.327 15.5 15.5 14.327 15.5 12.88V9.25C15.5 8.97386 15.2761 8.75 15 8.75L8.75 8.75C8.47386 8.75 8.25 8.97386 8.25 9.25V15Z" fill="#fff"/>
<path d="M15.5 6.75C15.5 7.02614 15.2761 7.25 15 7.25L8.75 7.25C8.47386 7.25 8.25 7.02614 8.25 6.75V1C8.25 0.723858 8.47386 0.5 8.75 0.5H12.75C14.2688 0.5 15.5 1.73122 15.5 3.25V6.75Z" fill="#fff"/>
</svg>
